<svg xmlns="http://www.w3.org/2000/svg" xmlns:xlink="http://www.w3.org/1999/xlink" width="377" zoomAndPan="magnify" viewBox="0 0 283.5 283.500005" height="377" preserveAspectRatio="xMidYMid meet" version="1.0"><defs><clipPath id="e9269d31e8"><path d="M 11.660156 43.4375 L 249 43.4375 L 249 254.9375 L 11.660156 254.9375 Z M 11.660156 43.4375 " clip-rule="nonzero"/></clipPath><clipPath id="270bc62f59"><path d="M 99 83 L 283 83 L 283 185 L 99 185 Z M 99 83 " clip-rule="nonzero"/></clipPath></defs><g clip-path="url(#e9269d31e8)"><path fill="#102538" d="M 70.804688 43.921875 C 41.53125 48.019531 18.375 69.707031 12.75 98.28125 C 11.65625 103.796875 11.765625 117.347656 12.96875 122.863281 C 17.011719 141.714844 27.441406 160.011719 46.285156 181.484375 C 52.949219 189.078125 72.390625 208.035156 81.460938 215.902344 C 94.675781 227.214844 115.105469 243.167969 127.339844 251.742188 L 131.820312 254.855469 L 134.441406 253.109375 C 139.960938 249.339844 156.015625 237.210938 165.191406 229.890625 C 179.667969 218.308594 190.589844 208.640625 201.949219 197.441406 L 212.273438 187.332031 L 208.558594 178.863281 C 206.539062 174.21875 204.792969 170.34375 204.734375 170.230469 C 204.679688 170.121094 198.179688 176.570312 190.261719 184.492188 C 172.949219 201.808594 163.664062 209.675781 140.175781 226.882812 L 131.875 233.003906 L 121.003906 224.753906 C 100.90625 209.511719 83.59375 194.492188 68.792969 179.355469 C 46.9375 157.011719 33.832031 136.414062 30.171875 118.765625 C 27.441406 105.65625 31.210938 90.847656 40.167969 79.707031 C 46.722656 71.621094 56.554688 65.28125 67.148438 62.386719 C 72.882812 60.855469 85.882812 60.695312 91.617188 62.113281 C 100.464844 64.300781 109.261719 69.269531 115.539062 75.554688 C 119.910156 79.980469 122.316406 83.476562 127.503906 93.199219 C 129.742188 97.351562 131.707031 100.738281 131.871094 100.738281 C 132.035156 100.738281 133.945312 97.351562 136.1875 93.199219 C 140.828125 84.625 142.523438 81.949219 146.015625 77.847656 C 151.585938 71.183594 161.804688 64.84375 170.921875 62.386719 C 177.09375 60.75 189.222656 60.75 195.335938 62.386719 C 205.929688 65.28125 214.179688 69.925781 220.679688 76.808594 C 228.761719 85.332031 232.640625 93.691406 234.222656 105.875 L 234.824219 110.792969 L 241.488281 100.578125 L 248.207031 90.304688 L 246.894531 86.917969 C 241.269531 71.949219 229.089844 58.347656 214.5625 50.914062 C 204.457031 45.726562 195.9375 43.707031 184.304688 43.652344 C 175.511719 43.652344 171.140625 44.304688 164.097656 46.820312 C 154.101562 50.261719 147.003906 54.902344 138.265625 63.699219 L 131.871094 70.144531 L 125.703125 63.972656 C 111.992188 50.097656 98.882812 44.085938 81.351562 43.652344 C 77.46875 43.539062 72.71875 43.648438 70.804688 43.921875 Z M 70.804688 43.921875 " fill-opacity="1" fill-rule="nonzero"/></g><g clip-path="url(#270bc62f59)"><path fill="#102538" d="M 182.664062 111.773438 C 175.945312 127.507812 169.71875 141.933594 168.898438 143.84375 L 167.316406 147.394531 L 159.179688 135.105469 C 154.648438 128.382812 150.824219 122.8125 150.550781 122.703125 C 150.332031 122.644531 145.304688 132.316406 139.351562 144.171875 L 128.589844 165.75 L 99.097656 165.75 L 99.097656 183.230469 L 139.515625 183.230469 L 145.90625 170.390625 C 149.457031 163.34375 152.515625 157.609375 152.734375 157.664062 C 153.007812 157.769531 157.101562 163.726562 161.90625 170.882812 L 170.589844 183.996094 L 172.175781 180.445312 C 173.050781 178.53125 178.511719 165.804688 184.300781 152.199219 C 190.089844 138.652344 195.007812 127.507812 195.226562 127.507812 C 195.445312 127.507812 201.074219 140.289062 207.789062 155.96875 L 219.96875 184.433594 L 223.191406 179.296875 C 224.992188 176.511719 229.582031 169.246094 233.460938 163.125 C 237.28125 157.011719 240.558594 152.253906 240.722656 152.472656 C 240.832031 152.691406 242.363281 157.71875 244.054688 163.5625 C 245.804688 169.410156 247.824219 176.238281 248.53125 178.75 L 249.894531 183.230469 L 283.160156 183.230469 L 283.160156 165.75 L 263.0625 165.75 L 262.1875 163.128906 C 261.75 161.710938 258.144531 149.472656 254.160156 135.976562 C 250.226562 122.429688 246.839844 111.121094 246.621094 110.738281 C 246.460938 110.414062 241.160156 118.335938 234.824219 128.332031 C 228.542969 138.382812 223.191406 146.578125 223.027344 146.632812 C 222.867188 146.632812 216.640625 132.375 209.15625 114.945312 C 201.671875 97.519531 195.445312 83.257812 195.226562 83.257812 C 195.007812 83.257812 189.382812 96.097656 182.664062 111.773438 Z M 182.664062 111.773438 " fill-opacity="1" fill-rule="nonzero"/></g></svg>