<svg xmlns="http://www.w3.org/2000/svg" xmlns:xlink="http://www.w3.org/1999/xlink" width="377" zoomAndPan="magnify" viewBox="0 0 283.5 283.500005" height="377" preserveAspectRatio="xMidYMid meet" version="1.0"><defs><clipPath id="41115eb38c"><path d="M 0 0 L 283 0 L 283 283 L 0 283 Z M 0 0 " clip-rule="nonzero"/></clipPath><clipPath id="8f4a85f512"><path d="M 31.570312 105 L 252.070312 105 L 252.070312 229.851562 L 31.570312 229.851562 Z M 31.570312 105 " clip-rule="nonzero"/></clipPath><clipPath id="e4e208f16d"><path d="M 120 53.601562 L 135 53.601562 L 135 96 L 120 96 Z M 120 53.601562 " clip-rule="nonzero"/></clipPath><clipPath id="1e85edeb5b"><path d="M 152 53.601562 L 165 53.601562 L 165 97 L 152 97 Z M 152 53.601562 " clip-rule="nonzero"/></clipPath></defs><g clip-path="url(#41115eb38c)"><path fill="#ffffff" d="M 0 0 L 283.5 0 L 283.5 291 L 0 291 Z M 0 0 " fill-opacity="1" fill-rule="nonzero"/><path fill="#ffffff" d="M 0 0 L 283.5 0 L 283.5 283.5 L 0 283.5 Z M 0 0 " fill-opacity="1" fill-rule="nonzero"/><path fill="#ffffff" d="M 0 0 L 283.5 0 L 283.5 283.5 L 0 283.5 Z M 0 0 " fill-opacity="1" fill-rule="nonzero"/></g><g clip-path="url(#8f4a85f512)"><path fill="#102538" d="M 31.453125 178.324219 C 31.453125 176.90625 31.453125 175.5 31.453125 174.082031 C 32.164062 174.035156 32.285156 173.453125 32.464844 172.941406 C 36.496094 161.507812 40.53125 150.066406 44.5625 138.632812 C 46.425781 134.164062 48.214844 129.675781 49.34375 124.945312 C 51.363281 119.613281 53.363281 114.261719 55.425781 108.9375 C 56.886719 105.160156 60.203125 104.191406 63.75 106.234375 C 69.683594 109.648438 76 112.210938 82.355469 114.6875 C 87.207031 119.28125 93.292969 119.054688 99.316406 119.015625 C 104.9375 119.992188 110.617188 120.246094 116.300781 120.472656 C 118.488281 120.695312 120.726562 121.589844 122.835938 120.1875 C 126.335938 117.867188 129.820312 115.53125 133.3125 113.195312 C 138.609375 110.417969 144.476562 110.273438 150.222656 109.574219 C 155.753906 109.765625 161.023438 111.035156 166.082031 113.210938 C 171.769531 116.175781 176.8125 121.238281 184.167969 118.738281 C 190.492188 118.949219 196.476562 118.058594 201.238281 113.332031 C 205.625 110.988281 209.792969 108.269531 213.808594 105.332031 C 214.949219 105.308594 216.089844 105.28125 217.226562 105.25 C 217.472656 105.386719 217.71875 105.523438 217.96875 105.660156 C 220.867188 110.945312 223.777344 116.238281 226.675781 121.523438 C 228.859375 126.492188 231.160156 131.402344 234.109375 135.976562 C 234.488281 136.808594 234.871094 137.640625 235.253906 138.472656 C 240.839844 149.488281 246.429688 160.515625 252.015625 171.542969 C 252.015625 172.398438 252.015625 173.238281 252.015625 174.085938 C 243.625 179.847656 233.910156 182.941406 224.886719 187.433594 C 223.375 188.183594 221.546875 187.65625 220.761719 186.21875 C 218.980469 182.925781 217.160156 183.730469 214.980469 185.671875 C 213.535156 186.964844 211.933594 188.109375 210.402344 189.328125 C 208.832031 190.042969 207.234375 190.664062 208.125 192.984375 C 209.933594 197.707031 208.542969 201.777344 205.34375 205.414062 C 203.933594 206.265625 202.523438 207.121094 201.125 207.976562 C 199.269531 208.800781 196.175781 206.585938 195.421875 209.792969 C 193.976562 215.90625 190.03125 219.085938 184.191406 220.40625 C 180.683594 220.152344 176.335938 217.074219 174.730469 223.214844 C 172.503906 225.128906 169.964844 226.484375 167.160156 227.332031 C 164.539062 227.148438 161.875 227.003906 159.507812 225.71875 C 158.339844 225.085938 157.507812 225.375 156.457031 225.957031 C 154.410156 227.078125 152.28125 228.039062 150.179688 229.054688 C 144.664062 229.769531 139.480469 228.503906 134.433594 226.4375 C 133.085938 225.492188 131.980469 224.285156 129.988281 225.503906 C 125.148438 228.445312 120.5625 227.375 116.277344 224.117188 C 116.003906 223.824219 115.730469 223.53125 115.457031 223.242188 C 114.652344 221.933594 114.625 219.867188 112.207031 220.175781 C 107.121094 220.824219 103.429688 218.285156 100.207031 214.761719 C 99.8125 212.679688 98.777344 211.945312 96.464844 211.945312 C 91.453125 211.941406 87.597656 209.546875 85.40625 204.9375 C 84.746094 203.554688 84.050781 202.925781 82.417969 202.667969 C 76.601562 201.757812 73.152344 198.277344 72.59375 192.351562 C 72.414062 190.433594 71.519531 189.617188 69.863281 189.230469 C 67.527344 188.070312 65.597656 184.609375 62.792969 186.292969 C 60.316406 187.785156 58.40625 187.558594 56.0625 186.851562 C 49.71875 184.910156 43.375 182.980469 36.992188 181.171875 C 34.925781 180.566406 33.035156 179.789062 31.453125 178.324219 Z M 200.007812 182.699219 C 201.269531 184.984375 202.765625 185.082031 204.695312 183.398438 C 206.074219 182.191406 207.640625 181.214844 209.125 180.136719 C 214.140625 176.515625 214.140625 176.515625 210.515625 171.410156 C 204.859375 160.785156 199.859375 149.859375 195.832031 138.5 C 195.339844 136.75 194.875 134.984375 194.359375 133.238281 C 192.167969 125.898438 192.160156 125.898438 184.128906 126.984375 C 178.539062 127.671875 173.019531 127.976562 168.386719 123.863281 C 162.445312 119.878906 156.105469 116.632812 148.773438 118.230469 C 145.558594 118.933594 141.8125 117.558594 139.070312 120.351562 C 136.792969 120.578125 134.875 121.574219 133.203125 123.097656 C 131.429688 124.175781 129.648438 125.234375 127.894531 126.332031 C 123.367188 129.167969 119.65625 132.566406 119.738281 138.488281 C 119.242188 141.753906 117.996094 144.59375 115.523438 146.921875 C 114.65625 147.734375 114.171875 149.050781 113.773438 150.226562 C 112.835938 153.035156 113.972656 154.558594 116.917969 154.722656 C 120.160156 154.914062 123.027344 153.992188 125.492188 151.847656 C 128.078125 149.605469 130.425781 147.035156 131.679688 143.910156 C 133.484375 139.382812 137.003906 138 141.269531 137.71875 C 143.777344 137.546875 146.308594 137.84375 148.839844 137.929688 C 149.863281 138.402344 150.894531 138.875 151.914062 139.34375 C 156.976562 143.730469 162.027344 148.109375 167.085938 152.492188 C 168.042969 153.6875 169.042969 154.816406 170.476562 155.46875 C 174.765625 159.976562 179.390625 164.09375 184.191406 168.035156 C 185.871094 170.113281 187.8125 171.910156 190.019531 173.414062 C 193.085938 176.785156 196.449219 179.847656 200.007812 182.699219 Z M 111.183594 138.480469 C 111.953125 135.804688 112.617188 133.089844 113.527344 130.457031 C 114.136719 128.679688 113.503906 128.3125 111.878906 128.234375 C 107.6875 128.050781 103.507812 127.738281 99.324219 127.472656 C 95.699219 127.109375 92.058594 126.84375 88.445312 126.351562 C 86.351562 126.066406 85.84375 127 85.550781 128.832031 C 85.054688 132.015625 84.261719 135.148438 83.59375 138.304688 C 82.882812 140.898438 82.171875 143.496094 81.457031 146.089844 C 77.90625 154.914062 74.609375 163.84375 70.363281 172.375 C 67.246094 178.625 67.339844 178.601562 73.582031 181.984375 C 75.160156 182.839844 76.25 183.273438 77.355469 181.410156 C 78.535156 179.414062 80.554688 178.320312 82.515625 177.222656 C 87.363281 175.945312 91.695312 176.808594 94.890625 180.839844 C 96.371094 182.707031 97.773438 181.742188 99.3125 181.433594 C 103.050781 181.449219 106.90625 181.941406 109.167969 185.078125 C 111.308594 188.039062 113.503906 187.945312 116.292969 186.816406 C 119.1875 187.210938 121.933594 188.023438 124.484375 189.46875 C 125.9375 191.269531 127.914062 192.832031 128.339844 195.195312 C 128.84375 198.042969 130.515625 199.007812 133.117188 199.035156 C 134.777344 200.296875 136.882812 202.953125 138.023438 202.589844 C 143.175781 200.953125 145.300781 205.003906 148.441406 207.175781 C 152.652344 210.652344 156.800781 214.1875 161.09375 217.558594 C 163.492188 219.4375 166.40625 220.347656 168.609375 217.585938 C 170.773438 214.859375 168.761719 212.441406 166.726562 210.671875 C 161.332031 205.953125 155.769531 201.441406 150.273438 196.847656 C 147.652344 194.066406 144.753906 191.609375 141.660156 189.371094 C 139.90625 187.753906 138.171875 186.117188 136.394531 184.53125 C 134.417969 182.757812 133.835938 180.664062 135.636719 178.601562 C 137.464844 176.515625 139.640625 176.949219 141.644531 178.59375 C 144.03125 180.558594 146.414062 182.519531 148.800781 184.480469 C 150.460938 186.359375 152.308594 188.019531 154.4375 189.355469 C 157.871094 192.871094 161.605469 196.042969 165.601562 198.921875 C 168.566406 202.035156 171.855469 204.789062 175.378906 207.269531 C 177.882812 209.683594 180.15625 212.542969 184.25 211.992188 C 188.402344 208.949219 188.789062 206.300781 185.082031 203.097656 C 173.804688 193.351562 162.402344 183.753906 151.050781 174.101562 C 150.648438 173.496094 150.242188 172.886719 149.84375 172.289062 C 149.511719 170.929688 150.015625 169.679688 150.351562 168.40625 C 153.101562 166.195312 155.398438 167.042969 157.828125 169.15625 C 168.261719 178.226562 178.796875 187.175781 189.265625 196.191406 C 191.324219 197.96875 193.476562 199.515625 196.171875 200.128906 C 197.789062 200.496094 199.261719 200.21875 200.335938 198.816406 C 201.457031 197.34375 201.109375 195.828125 200.210938 194.484375 C 198.785156 192.371094 196.957031 190.625 194.796875 189.25 C 191.496094 186.191406 188.203125 183.125 184.90625 180.066406 C 173.289062 168.792969 161.289062 157.933594 149 147.402344 C 144.8125 143.8125 140.738281 144.691406 137.8125 149.277344 C 136.453125 151.394531 134.90625 153.398438 133.453125 155.46875 C 133.1875 155.476562 133.074219 155.613281 133.089844 155.871094 C 128.441406 160.488281 122.828125 162.828125 116.300781 163.011719 C 111.570312 162.070312 107.550781 160.15625 105.707031 155.269531 C 104.824219 150.761719 106.050781 146.789062 108.453125 142.972656 C 109.375 141.480469 111.324219 140.597656 111.183594 138.480469 Z M 118.898438 195.917969 C 118.195312 194.992188 117.273438 195.015625 116.28125 195.316406 C 114.203125 195.007812 113.246094 196.496094 112.308594 197.878906 C 110.726562 200.199219 109.347656 202.664062 107.6875 204.929688 C 105.988281 207.25 105.882812 209.445312 108.125 211.234375 C 110.507812 213.125 112.941406 212.609375 114.753906 210.257812 C 116.730469 207.691406 118.597656 205.039062 120.320312 202.3125 C 121.886719 199.824219 121.726562 197.519531 118.898438 195.917969 Z M 225.832031 138.433594 C 223.898438 133.746094 221.664062 129.210938 218.941406 124.921875 C 218.652344 123.652344 218.21875 122.460938 217.25 121.527344 C 214.453125 114.476562 214.453125 114.472656 208.367188 118.433594 C 207.5625 118.957031 206.828125 119.585938 206.066406 120.167969 C 199.863281 123.511719 199.824219 123.523438 201.847656 130.203125 C 202.6875 132.988281 203.730469 135.714844 204.671875 138.472656 C 209.015625 152.113281 215.492188 164.710938 223.402344 176.601562 C 224.367188 178.058594 225.15625 178.886719 227.105469 177.890625 C 231.5 175.652344 236 173.632812 240.5 171.628906 C 242.011719 170.960938 242.351562 170.210938 241.550781 168.734375 C 239.128906 164.304688 236.796875 159.832031 234.429688 155.371094 C 231.894531 149.554688 229.070312 143.890625 225.832031 138.433594 Z M 74.777344 120.539062 C 71.148438 118.800781 67.492188 117.105469 63.890625 115.296875 C 62.460938 114.582031 61.664062 114.636719 61.097656 116.332031 C 58.613281 123.730469 56.039062 131.105469 53.5 138.484375 C 49.042969 149.609375 45.121094 160.933594 41.332031 172.300781 C 40.367188 173.441406 40.925781 174.023438 42.09375 174.382812 C 46.796875 175.8125 51.511719 177.183594 56.195312 178.683594 C 57.71875 179.160156 58.183594 178.273438 58.742188 177.246094 C 65.433594 164.886719 71.460938 152.253906 74.820312 138.519531 C 76.632812 134.28125 77.082031 129.699219 78.140625 125.277344 C 78.875 122.234375 77.679688 120.855469 74.777344 120.539062 Z M 100.386719 189.394531 C 100.144531 189.464844 99.5 189.484375 99.097656 189.808594 C 95.859375 192.421875 93.5 195.734375 92.347656 199.703125 C 91.851562 201.414062 93 203.027344 94.804688 203.660156 C 96.488281 204.242188 98.246094 204.210938 99.414062 202.609375 C 101.164062 200.222656 102.902344 197.816406 104.378906 195.257812 C 105.921875 192.582031 103.800781 189.355469 100.386719 189.394531 Z M 140.453125 210.789062 C 139.316406 212.921875 138.410156 214.792969 137.332031 216.570312 C 136.757812 217.515625 136.425781 218.078125 137.570312 218.945312 C 140.753906 221.332031 147.316406 221.785156 151.035156 219.574219 C 147.550781 216.679688 144.132812 213.839844 140.453125 210.789062 Z M 131.949219 209.875 C 132.003906 208.507812 131.574219 207.539062 130.550781 206.867188 C 129.496094 206.183594 128.316406 206.109375 127.4375 206.964844 C 124.925781 209.40625 122.980469 212.316406 121.433594 215.4375 C 120.730469 216.832031 121.449219 218.257812 122.90625 218.914062 C 124.554688 219.664062 125.425781 218.980469 125.777344 217.175781 C 126.03125 215.886719 127.160156 215.234375 128.359375 214.648438 C 130.367188 213.671875 131.207031 211.699219 131.949219 209.875 Z M 89.375 187.40625 C 89.261719 185.777344 88.207031 184.785156 86.425781 184.664062 C 84.582031 184.535156 80.511719 189.488281 80.5625 191.722656 C 80.601562 193.601562 81.660156 194.570312 83.484375 194.660156 C 85.265625 194.734375 89.40625 189.753906 89.375 187.40625 Z M 89.375 187.40625 " fill-opacity="1" fill-rule="nonzero"/></g><g clip-path="url(#e4e208f16d)"><path fill="#102538" d="M 126.46875 53.722656 C 130.199219 58.519531 129.332031 64.515625 130.601562 69.941406 C 131.972656 75.765625 132.832031 81.710938 133.910156 87.609375 C 133.746094 90.144531 135.078125 92.816406 133.230469 95.203125 C 128.769531 96.867188 127.175781 96.007812 126.269531 91.488281 C 125.996094 90.136719 125.691406 88.800781 125.40625 87.453125 C 124.484375 81.816406 123.566406 76.179688 122.644531 70.539062 C 122.144531 67.058594 121.863281 63.527344 121.066406 60.121094 C 120.445312 57.421875 121.132812 55.457031 123.066406 53.722656 C 124.210938 53.722656 125.339844 53.722656 126.46875 53.722656 Z M 126.46875 53.722656 " fill-opacity="1" fill-rule="nonzero"/></g><g clip-path="url(#1e85edeb5b)"><path fill="#102538" d="M 158.707031 53.722656 C 160.121094 53.722656 161.53125 53.722656 162.949219 53.722656 C 164.75 55.761719 165.03125 58.09375 164.582031 60.714844 C 164.007812 64.015625 163.691406 67.363281 163.257812 70.6875 C 162.507812 76.316406 161.753906 81.945312 161.003906 87.570312 C 160.695312 89.199219 160.449219 90.835938 160.085938 92.449219 C 159.523438 94.941406 158.0625 96.539062 155.351562 95.988281 C 152.964844 95.507812 151.953125 93.761719 152.207031 91.328125 C 152.339844 90.09375 152.460938 88.847656 152.578125 87.613281 C 153.371094 82.003906 154.15625 76.394531 154.953125 70.785156 C 156.546875 65.175781 155.53125 58.988281 158.707031 53.722656 Z M 158.707031 53.722656 " fill-opacity="1" fill-rule="nonzero"/></g><path fill="#102538" d="M 180.070312 88.761719 C 183.296875 83.902344 186.625 79.097656 189.714844 74.148438 C 191.492188 71.304688 193.582031 70.285156 196.675781 71.882812 C 198.226562 73.960938 198.074219 75.96875 196.65625 78.101562 C 194.871094 80.785156 193.257812 83.582031 191.566406 86.324219 C 188.703125 90.660156 185.84375 94.992188 182.980469 99.324219 C 180.976562 100.347656 178.972656 100.714844 177.316406 98.773438 C 175.511719 96.652344 176.484375 94.660156 177.769531 92.6875 C 178.601562 91.417969 179.3125 90.074219 180.070312 88.761719 Z M 180.070312 88.761719 " fill-opacity="1" fill-rule="nonzero"/><path fill="#102538" d="M 100.570312 97.621094 C 98.449219 94.121094 96.292969 90.660156 93.597656 87.570312 C 92.34375 85.582031 91.148438 83.550781 89.816406 81.617188 C 88.277344 79.371094 87.871094 77.09375 90.304688 75.425781 C 92.652344 73.804688 94.773438 74.675781 96.316406 77.03125 C 96.84375 77.835938 97.492188 78.566406 98.089844 79.328125 C 99.988281 82.09375 101.894531 84.867188 103.792969 87.632812 C 104.84375 89.289062 105.835938 90.984375 106.960938 92.582031 C 108.546875 94.832031 109.636719 97.15625 107.007812 99.257812 C 104.324219 101.398438 102.34375 99.660156 100.570312 97.621094 Z M 100.570312 97.621094 " fill-opacity="1" fill-rule="nonzero"/></svg>