<svg xmlns="http://www.w3.org/2000/svg" xmlns:xlink="http://www.w3.org/1999/xlink" width="377" zoomAndPan="magnify" viewBox="0 0 282.96 283.499996" height="377" preserveAspectRatio="xMidYMid meet" version="1.0"><defs><clipPath id="id1"><path d="M 0.230469 0 L 282.691406 0 L 282.691406 283 L 0.230469 283 Z M 0.230469 0 " clip-rule="nonzero"/></clipPath><clipPath id="id2"><path d="M 0.230469 0 L 282.691406 0 L 282.691406 282.5 L 0.230469 282.5 Z M 0.230469 0 " clip-rule="nonzero"/></clipPath><clipPath id="id3"><path d="M 28.476562 105 L 106 105 L 106 109 L 28.476562 109 Z M 28.476562 105 " clip-rule="nonzero"/></clipPath></defs><g clip-path="url(#id1)"><path fill="#ffffff" d="M 0.230469 0 L 282.730469 0 L 282.730469 289.976562 L 0.230469 289.976562 Z M 0.230469 0 " fill-opacity="1" fill-rule="nonzero"/><path fill="#ffffff" d="M 0.230469 0 L 282.730469 0 L 282.730469 282.5 L 0.230469 282.5 Z M 0.230469 0 " fill-opacity="1" fill-rule="nonzero"/></g><g clip-path="url(#id2)"><path fill="#ffffff" d="M 0.230469 0 L 282.730469 0 L 282.730469 282.5 L 0.230469 282.5 Z M 0.230469 0 " fill-opacity="1" fill-rule="nonzero"/><path fill="#ffffff" d="M 0.230469 0 L 282.730469 0 L 282.730469 282.5 L 0.230469 282.5 Z M 0.230469 0 " fill-opacity="1" fill-rule="nonzero"/></g><path fill="#fedea3" d="M 211.726562 151.367188 C 211.375 151.753906 210.855469 151.941406 210.339844 151.867188 C 209.480469 151.746094 208.878906 150.953125 209 150.09375 C 211.03125 135.691406 205.796875 121.273438 195.003906 111.519531 C 184.210938 101.761719 169.300781 97.976562 155.117188 101.398438 C 154.273438 101.597656 153.417969 101.082031 153.214844 100.238281 C 153.09375 99.734375 153.230469 99.199219 153.582031 98.8125 C 153.792969 98.582031 154.070312 98.417969 154.375 98.34375 C 169.574219 94.679688 185.554688 98.738281 197.121094 109.191406 C 208.6875 119.644531 214.292969 135.097656 212.117188 150.53125 C 212.074219 150.84375 211.9375 151.132812 211.726562 151.367188 Z M 188.082031 164.082031 C 176.859375 176.417969 157.65625 177.351562 145.277344 166.167969 C 132.898438 154.980469 131.960938 135.84375 143.1875 123.503906 C 154.414062 111.167969 173.613281 110.234375 185.992188 121.421875 C 198.371094 132.609375 199.308594 151.746094 188.082031 164.082031 Z M 177.691406 188.773438 C 177.476562 189.007812 177.199219 189.171875 176.890625 189.246094 C 161.695312 192.90625 145.714844 188.851562 134.148438 178.394531 C 122.582031 167.945312 116.976562 152.488281 119.152344 137.054688 C 119.195312 136.742188 119.332031 136.453125 119.542969 136.222656 C 119.894531 135.835938 120.414062 135.648438 120.929688 135.71875 C 121.34375 135.777344 121.714844 135.992188 121.96875 136.328125 C 122.222656 136.664062 122.328125 137.078125 122.269531 137.496094 C 120.238281 151.894531 125.472656 166.316406 136.265625 176.070312 C 147.058594 185.824219 161.96875 189.609375 176.152344 186.191406 C 176.5625 186.09375 176.984375 186.160156 177.34375 186.378906 C 177.703125 186.597656 177.957031 186.941406 178.054688 187.347656 C 178.175781 187.855469 178.042969 188.386719 177.691406 188.773438 Z M 203.332031 102.367188 C 180.410156 81.652344 144.855469 83.382812 124.070312 106.226562 C 103.28125 129.070312 105.019531 164.503906 127.9375 185.222656 C 134.078125 190.769531 141.121094 194.703125 148.546875 197.058594 L 107.910156 197.058594 C 107.179688 197.058594 106.585938 197.648438 106.585938 198.375 C 106.585938 199.105469 107.179688 199.695312 107.910156 199.695312 L 162.039062 199.695312 C 162.207031 199.695312 162.359375 199.660156 162.507812 199.605469 C 178.824219 200.5 195.394531 194.339844 207.199219 181.363281 C 227.988281 158.519531 226.25 123.082031 203.332031 102.367188 " fill-opacity="1" fill-rule="nonzero"/><path fill="#fedea3" d="M 156.9375 138.328125 L 148.972656 131.132812 C 148.902344 131.226562 148.828125 131.316406 148.761719 131.40625 L 156.75 138.628906 C 156.808594 138.527344 156.875 138.429688 156.9375 138.328125 " fill-opacity="1" fill-rule="nonzero"/><path fill="#fedea3" d="M 159.609375 135.484375 L 151.621094 128.261719 C 151.535156 128.339844 151.453125 128.425781 151.367188 128.503906 L 159.328125 135.699219 C 159.421875 135.625 159.515625 135.554688 159.609375 135.484375 " fill-opacity="1" fill-rule="nonzero"/><path fill="#fedea3" d="M 171.660156 152.101562 L 179.648438 159.324219 C 179.734375 159.246094 179.816406 159.164062 179.902344 159.085938 L 171.941406 151.890625 C 171.847656 151.964844 171.753906 152.035156 171.660156 152.101562 " fill-opacity="1" fill-rule="nonzero"/><path fill="#fedea3" d="M 174.335938 149.261719 L 182.296875 156.457031 C 182.367188 156.363281 182.441406 156.273438 182.507812 156.179688 L 174.519531 148.960938 C 174.460938 149.0625 174.394531 149.160156 174.335938 149.261719 " fill-opacity="1" fill-rule="nonzero"/><path fill="#fedea3" d="M 163.363281 133.800781 L 162.839844 123.109375 C 162.722656 123.125 162.605469 123.140625 162.492188 123.15625 L 163.019531 133.886719 C 163.132812 133.855469 163.246094 133.828125 163.363281 133.800781 " fill-opacity="1" fill-rule="nonzero"/><path fill="#fedea3" d="M 167.269531 133.679688 L 166.746094 122.949219 C 166.628906 122.941406 166.511719 122.941406 166.394531 122.933594 L 166.921875 133.628906 C 167.039062 133.644531 167.152344 133.660156 167.269531 133.679688 " fill-opacity="1" fill-rule="nonzero"/><path fill="#fedea3" d="M 164 153.910156 L 164.523438 164.640625 C 164.640625 164.644531 164.757812 164.648438 164.875 164.652344 L 164.347656 153.960938 C 164.230469 153.945312 164.117188 153.925781 164 153.910156 " fill-opacity="1" fill-rule="nonzero"/><path fill="#fedea3" d="M 167.910156 153.785156 L 168.429688 164.480469 C 168.546875 164.464844 168.664062 164.449219 168.777344 164.433594 L 168.25 153.703125 C 168.136719 153.734375 168.023438 153.761719 167.910156 153.785156 " fill-opacity="1" fill-rule="nonzero"/><path fill="#fedea3" d="M 175.660156 141.527344 L 186.390625 141.007812 C 186.375 140.890625 186.359375 140.777344 186.34375 140.664062 L 175.578125 141.1875 C 175.605469 141.300781 175.636719 141.414062 175.660156 141.527344 " fill-opacity="1" fill-rule="nonzero"/><path fill="#fedea3" d="M 175.785156 145.425781 L 186.550781 144.902344 C 186.558594 144.785156 186.5625 144.667969 186.566406 144.550781 L 175.835938 145.074219 C 175.820312 145.191406 175.804688 145.308594 175.785156 145.425781 " fill-opacity="1" fill-rule="nonzero"/><path fill="#fedea3" d="M 155.484375 142.164062 L 144.71875 142.6875 C 144.714844 142.804688 144.710938 142.921875 144.707031 143.039062 L 155.433594 142.515625 C 155.449219 142.398438 155.46875 142.28125 155.484375 142.164062 " fill-opacity="1" fill-rule="nonzero"/><path fill="#fedea3" d="M 155.609375 146.058594 L 144.878906 146.582031 C 144.894531 146.699219 144.910156 146.8125 144.925781 146.925781 L 155.695312 146.402344 C 155.664062 146.289062 155.636719 146.175781 155.609375 146.058594 " fill-opacity="1" fill-rule="nonzero"/><path fill="#fedea3" d="M 178.339844 127.191406 C 178.246094 127.121094 178.15625 127.046875 178.0625 126.976562 L 170.820312 134.9375 C 170.917969 134.996094 171.019531 135.058594 171.121094 135.125 L 178.339844 127.191406 " fill-opacity="1" fill-rule="nonzero"/><path fill="#fedea3" d="M 173.972656 137.789062 L 181.21875 129.824219 C 181.140625 129.742188 181.054688 129.660156 180.976562 129.574219 L 173.757812 137.507812 C 173.832031 137.601562 173.902344 137.695312 173.972656 137.789062 " fill-opacity="1" fill-rule="nonzero"/><path fill="#fedea3" d="M 157.296875 149.796875 L 150.050781 157.761719 C 150.128906 157.847656 150.214844 157.929688 150.292969 158.015625 L 157.511719 150.078125 C 157.441406 149.988281 157.367188 149.894531 157.296875 149.796875 " fill-opacity="1" fill-rule="nonzero"/><path fill="#fedea3" d="M 152.929688 160.398438 C 153.023438 160.46875 153.113281 160.542969 153.207031 160.613281 L 160.453125 152.648438 C 160.351562 152.589844 160.25 152.527344 160.148438 152.464844 L 152.929688 160.398438 " fill-opacity="1" fill-rule="nonzero"/><path fill="#fedea3" d="M 181.96875 158.554688 C 173.800781 167.53125 159.828125 168.214844 150.824219 160.070312 C 141.816406 151.929688 141.136719 138.007812 149.300781 129.03125 C 157.46875 120.054688 171.441406 119.375 180.445312 127.515625 C 189.453125 135.65625 190.132812 149.578125 181.96875 158.554688 Z M 181.671875 126.167969 C 171.921875 117.355469 156.792969 118.09375 147.949219 127.8125 C 139.105469 137.527344 139.847656 152.605469 149.597656 161.417969 C 159.347656 170.230469 174.476562 169.496094 183.320312 159.777344 C 192.164062 150.058594 191.421875 134.980469 181.671875 126.167969 " fill-opacity="1" fill-rule="nonzero"/><path fill="#fedea3" d="M 184.128906 160.511719 C 174.878906 170.671875 159.0625 171.441406 148.863281 162.226562 C 138.667969 153.007812 137.894531 137.242188 147.140625 127.078125 C 156.386719 116.917969 172.210938 116.144531 182.40625 125.363281 C 192.601562 134.578125 193.375 150.347656 184.128906 160.511719 Z M 185.257812 122.230469 C 173.328125 111.445312 154.816406 112.347656 143.996094 124.238281 C 133.175781 136.128906 134.082031 154.578125 146.011719 165.359375 C 157.941406 176.144531 176.453125 175.242188 187.273438 163.351562 C 198.09375 151.457031 197.191406 133.011719 185.257812 122.230469 " fill-opacity="1" fill-rule="nonzero"/><path fill="#fedea3" d="M 169.394531 147.191406 C 167.511719 149.257812 164.296875 149.410156 162.230469 147.539062 C 160.15625 145.667969 159.996094 142.464844 161.875 140.398438 C 163.753906 138.335938 166.972656 138.175781 169.042969 140.050781 C 171.117188 141.921875 171.273438 145.125 169.394531 147.191406 Z M 171.8125 137.003906 C 168.054688 133.613281 162.230469 133.894531 158.824219 137.640625 C 155.417969 141.382812 155.703125 147.1875 159.460938 150.582031 C 163.214844 153.976562 169.039062 153.691406 172.445312 149.949219 C 175.851562 146.207031 175.566406 140.398438 171.8125 137.003906 " fill-opacity="1" fill-rule="nonzero"/><path fill="#fedea3" d="M 64.863281 91.476562 L 138.410156 91.476562 C 139.398438 91.476562 140.207031 90.675781 140.207031 89.6875 C 140.207031 88.695312 139.398438 87.894531 138.410156 87.894531 L 64.863281 87.894531 C 63.871094 87.894531 63.066406 88.695312 63.066406 89.6875 C 63.066406 90.675781 63.871094 91.476562 64.863281 91.476562 " fill-opacity="1" fill-rule="nonzero"/><g clip-path="url(#id3)"><path fill="#fedea3" d="M 105.667969 106.878906 C 105.667969 105.890625 104.859375 105.089844 103.867188 105.089844 L 30.324219 105.089844 C 29.332031 105.089844 28.527344 105.890625 28.527344 106.878906 C 28.527344 107.867188 29.332031 108.671875 30.324219 108.671875 L 103.867188 108.671875 C 104.859375 108.671875 105.667969 107.867188 105.667969 106.878906 " fill-opacity="1" fill-rule="nonzero"/></g><path fill="#fedea3" d="M 108.472656 122.933594 C 108.472656 122.207031 107.878906 121.617188 107.148438 121.617188 L 53.019531 121.617188 C 52.289062 121.617188 51.695312 122.207031 51.695312 122.933594 C 51.695312 123.664062 52.289062 124.253906 53.019531 124.253906 L 107.148438 124.253906 C 107.878906 124.253906 108.472656 123.664062 108.472656 122.933594 " fill-opacity="1" fill-rule="nonzero"/></svg>