<svg xmlns="http://www.w3.org/2000/svg" xmlns:xlink="http://www.w3.org/1999/xlink" width="377" zoomAndPan="magnify" viewBox="0 0 283.5 283.500005" height="377" preserveAspectRatio="xMidYMid meet" version="1.0"><defs><clipPath id="22202f215d"><path d="M 0 0 L 283 0 L 283 283 L 0 283 Z M 0 0 " clip-rule="nonzero"/></clipPath></defs><g clip-path="url(#22202f215d)"><path fill="#ffffff" d="M 0 0 L 283.5 0 L 283.5 291 L 0 291 Z M 0 0 " fill-opacity="1" fill-rule="nonzero"/><path fill="#ffffff" d="M 0 0 L 283.5 0 L 283.5 283.5 L 0 283.5 Z M 0 0 " fill-opacity="1" fill-rule="nonzero"/><path fill="#ffffff" d="M 0 0 L 283.5 0 L 283.5 283.5 L 0 283.5 Z M 0 0 " fill-opacity="1" fill-rule="nonzero"/></g><path fill="#102538" d="M 226.574219 159.941406 C 225.957031 160.625 225.039062 160.957031 224.121094 160.828125 C 222.601562 160.617188 221.535156 159.203125 221.75 157.6875 C 225.34375 132.144531 216.082031 106.566406 196.976562 89.265625 C 177.867188 71.964844 151.472656 65.253906 126.367188 71.316406 C 124.871094 71.675781 123.359375 70.753906 123 69.261719 C 122.785156 68.367188 123.023438 67.421875 123.648438 66.734375 C 124.023438 66.324219 124.511719 66.035156 125.054688 65.90625 C 151.960938 59.40625 180.246094 66.601562 200.722656 85.140625 C 221.199219 103.679688 231.125 131.089844 227.273438 158.460938 C 227.195312 159.011719 226.953125 159.527344 226.574219 159.941406 Z M 184.722656 182.492188 C 164.855469 204.371094 130.859375 206.027344 108.945312 186.1875 C 87.035156 166.351562 85.375 132.40625 105.246094 110.527344 C 125.117188 88.648438 159.109375 86.992188 181.023438 106.832031 C 202.933594 126.671875 204.597656 160.617188 184.722656 182.492188 Z M 166.328125 226.285156 C 165.949219 226.695312 165.457031 226.988281 164.914062 227.117188 C 138.007812 233.613281 109.722656 226.417969 89.246094 207.878906 C 68.773438 189.34375 58.847656 161.929688 62.699219 134.558594 C 62.773438 134.007812 63.015625 133.492188 63.394531 133.078125 C 64.015625 132.394531 64.929688 132.0625 65.847656 132.191406 C 66.582031 132.292969 67.238281 132.675781 67.6875 133.269531 C 68.132812 133.863281 68.320312 134.597656 68.21875 135.335938 C 64.625 160.875 73.890625 186.453125 92.996094 203.757812 C 112.101562 221.054688 138.496094 227.765625 163.605469 221.703125 C 164.328125 221.53125 165.078125 221.648438 165.710938 222.035156 C 166.351562 222.421875 166.796875 223.039062 166.96875 223.757812 C 167.1875 224.652344 166.949219 225.597656 166.328125 226.285156 Z M 211.714844 73.039062 C 171.140625 36.300781 108.195312 39.367188 71.402344 79.882812 C 34.605469 120.394531 37.683594 183.242188 78.253906 219.984375 C 89.121094 229.820312 101.589844 236.800781 114.734375 240.976562 L 42.796875 240.976562 C 41.503906 240.976562 40.457031 242.019531 40.457031 243.3125 C 40.457031 244.605469 41.503906 245.652344 42.796875 245.652344 L 138.621094 245.652344 C 138.914062 245.652344 139.1875 245.589844 139.449219 245.492188 C 168.332031 247.078125 197.667969 236.152344 218.566406 213.140625 C 255.363281 172.625 252.289062 109.777344 211.714844 73.039062 " fill-opacity="1" fill-rule="nonzero"/><path fill="#102538" d="M 129.585938 136.8125 L 115.492188 124.058594 C 115.367188 124.21875 115.234375 124.378906 115.113281 124.542969 L 129.257812 137.351562 C 129.359375 137.167969 129.476562 136.992188 129.585938 136.8125 " fill-opacity="1" fill-rule="nonzero"/><path fill="#102538" d="M 134.320312 131.773438 L 120.179688 118.964844 C 120.023438 119.105469 119.878906 119.25 119.730469 119.390625 L 133.820312 132.152344 C 133.988281 132.023438 134.148438 131.894531 134.320312 131.773438 " fill-opacity="1" fill-rule="nonzero"/><path fill="#102538" d="M 155.648438 161.246094 L 169.789062 174.054688 C 169.945312 173.914062 170.089844 173.769531 170.242188 173.628906 L 156.148438 160.867188 C 155.984375 161 155.820312 161.125 155.648438 161.246094 " fill-opacity="1" fill-rule="nonzero"/><path fill="#102538" d="M 160.382812 156.207031 L 174.476562 168.96875 C 174.605469 168.800781 174.734375 168.644531 174.855469 168.480469 L 160.710938 155.671875 C 160.609375 155.851562 160.496094 156.027344 160.382812 156.207031 " fill-opacity="1" fill-rule="nonzero"/><path fill="#102538" d="M 140.964844 128.789062 L 140.035156 109.824219 C 139.832031 109.851562 139.625 109.878906 139.417969 109.90625 L 140.351562 128.9375 C 140.550781 128.882812 140.757812 128.835938 140.964844 128.789062 " fill-opacity="1" fill-rule="nonzero"/><path fill="#102538" d="M 147.878906 128.570312 L 146.953125 109.542969 C 146.742188 109.527344 146.535156 109.523438 146.332031 109.515625 L 147.261719 128.484375 C 147.46875 128.507812 147.671875 128.539062 147.878906 128.570312 " fill-opacity="1" fill-rule="nonzero"/><path fill="#102538" d="M 142.089844 164.449219 L 143.019531 183.484375 C 143.226562 183.492188 143.433594 183.5 143.636719 183.503906 L 142.707031 164.539062 C 142.5 164.515625 142.296875 164.480469 142.089844 164.449219 " fill-opacity="1" fill-rule="nonzero"/><path fill="#102538" d="M 149.007812 164.230469 L 149.933594 183.199219 C 150.136719 183.167969 150.347656 183.144531 150.550781 183.113281 L 149.617188 164.082031 C 149.414062 164.136719 149.214844 164.183594 149.007812 164.230469 " fill-opacity="1" fill-rule="nonzero"/><path fill="#102538" d="M 162.730469 142.492188 L 181.726562 141.566406 C 181.699219 141.363281 181.671875 141.160156 181.640625 140.957031 L 162.585938 141.886719 C 162.636719 142.089844 162.6875 142.292969 162.730469 142.492188 " fill-opacity="1" fill-rule="nonzero"/><path fill="#102538" d="M 162.953125 149.402344 L 182.007812 148.472656 C 182.019531 148.265625 182.03125 148.0625 182.039062 147.855469 L 163.042969 148.78125 C 163.011719 148.988281 162.984375 149.199219 162.953125 149.402344 " fill-opacity="1" fill-rule="nonzero"/><path fill="#102538" d="M 127.019531 143.617188 L 107.960938 144.550781 C 107.949219 144.753906 107.945312 144.960938 107.9375 145.167969 L 126.929688 144.242188 C 126.957031 144.035156 126.984375 143.824219 127.019531 143.617188 " fill-opacity="1" fill-rule="nonzero"/><path fill="#102538" d="M 127.238281 150.527344 L 108.242188 151.457031 C 108.269531 151.660156 108.296875 151.863281 108.328125 152.066406 L 127.390625 151.132812 C 127.332031 150.933594 127.28125 150.730469 127.238281 150.527344 " fill-opacity="1" fill-rule="nonzero"/><path fill="#102538" d="M 167.476562 117.0625 C 167.308594 116.9375 167.148438 116.804688 166.988281 116.683594 L 154.160156 130.804688 C 154.339844 130.910156 154.519531 131.019531 154.695312 131.132812 L 167.476562 117.0625 " fill-opacity="1" fill-rule="nonzero"/><path fill="#102538" d="M 159.746094 135.863281 L 172.570312 121.738281 C 172.433594 121.585938 172.285156 121.441406 172.144531 121.292969 L 159.367188 135.363281 C 159.496094 135.527344 159.621094 135.695312 159.746094 135.863281 " fill-opacity="1" fill-rule="nonzero"/><path fill="#102538" d="M 130.226562 157.15625 L 117.398438 171.28125 C 117.539062 171.433594 117.683594 171.578125 117.828125 171.730469 L 130.609375 157.65625 C 130.476562 157.496094 130.347656 157.328125 130.226562 157.15625 " fill-opacity="1" fill-rule="nonzero"/><path fill="#102538" d="M 122.492188 175.957031 C 122.660156 176.085938 122.820312 176.214844 122.984375 176.335938 L 135.808594 162.214844 C 135.628906 162.109375 135.453125 162 135.273438 161.886719 L 122.492188 175.957031 " fill-opacity="1" fill-rule="nonzero"/><path fill="#102538" d="M 173.898438 172.691406 C 159.4375 188.609375 134.707031 189.820312 118.765625 175.378906 C 102.820312 160.941406 101.613281 136.25 116.070312 120.328125 C 130.53125 104.410156 155.261719 103.207031 171.203125 117.640625 C 187.148438 132.078125 188.355469 156.769531 173.898438 172.691406 Z M 173.375 115.25 C 156.113281 99.621094 129.332031 100.925781 113.679688 118.164062 C 98.023438 135.398438 99.332031 162.136719 116.597656 177.769531 C 133.855469 193.398438 160.636719 192.09375 176.292969 174.859375 C 191.945312 157.621094 190.636719 130.882812 173.375 115.25 " fill-opacity="1" fill-rule="nonzero"/><path fill="#102538" d="M 177.722656 176.15625 C 161.351562 194.175781 133.347656 195.542969 115.296875 179.203125 C 97.246094 162.855469 95.875 134.890625 112.246094 116.867188 C 128.617188 98.84375 156.621094 97.476562 174.671875 113.820312 C 192.722656 130.164062 194.09375 158.128906 177.722656 176.15625 Z M 179.722656 108.261719 C 158.601562 89.136719 125.835938 90.738281 106.675781 111.824219 C 87.527344 132.914062 89.128906 165.632812 110.246094 184.761719 C 131.367188 203.886719 164.136719 202.289062 183.292969 181.195312 C 202.445312 160.105469 200.847656 127.386719 179.722656 108.261719 " fill-opacity="1" fill-rule="nonzero"/><path fill="#102538" d="M 151.636719 152.535156 C 148.308594 156.195312 142.617188 156.472656 138.957031 153.152344 C 135.28125 149.832031 135.007812 144.152344 138.332031 140.484375 C 141.65625 136.828125 147.351562 136.546875 151.015625 139.871094 C 154.6875 143.1875 154.964844 148.871094 151.636719 152.535156 Z M 155.917969 134.46875 C 149.269531 128.453125 138.960938 128.957031 132.925781 135.59375 C 126.898438 142.230469 127.40625 152.53125 134.050781 158.550781 C 140.699219 164.566406 151.011719 164.0625 157.042969 157.425781 C 163.070312 150.789062 162.566406 140.488281 155.917969 134.46875 " fill-opacity="1" fill-rule="nonzero"/><path fill="#102538" d="M -33.402344 53.722656 L 96.789062 53.722656 C 98.542969 53.722656 99.96875 52.300781 99.96875 50.546875 C 99.96875 48.792969 98.542969 47.367188 96.789062 47.367188 L -33.402344 47.367188 C -35.160156 47.367188 -36.585938 48.792969 -36.585938 50.546875 C -36.585938 52.300781 -35.160156 53.722656 -33.402344 53.722656 " fill-opacity="1" fill-rule="nonzero"/><path fill="#102538" d="M 38.828125 81.039062 C 38.828125 79.285156 37.402344 77.863281 35.644531 77.863281 L -94.550781 77.863281 C -96.304688 77.863281 -97.726562 79.285156 -97.726562 81.039062 C -97.726562 82.792969 -96.304688 84.21875 -94.550781 84.21875 L 35.644531 84.21875 C 37.402344 84.21875 38.828125 82.792969 38.828125 81.039062 " fill-opacity="1" fill-rule="nonzero"/><path fill="#102538" d="M 43.796875 109.515625 C 43.796875 108.226562 42.742188 107.179688 41.453125 107.179688 L -54.371094 107.179688 C -55.664062 107.179688 -56.710938 108.226562 -56.710938 109.515625 C -56.710938 110.808594 -55.664062 111.851562 -54.371094 111.851562 L 41.453125 111.851562 C 42.742188 111.851562 43.796875 110.808594 43.796875 109.515625 " fill-opacity="1" fill-rule="nonzero"/></svg>